<?xml version="1.0" encoding="UTF-8"?>
<svg version="1.1" xmlns="http://www.w3.org/2000/svg" width="512" height="512">
<path d="M0 0 C1.52602089 -0.00744736 1.52602089 -0.00744736 3.08287048 -0.01504517 C6.43692717 -0.02960529 9.79093647 -0.03646065 13.14501953 -0.04199219 C14.87428869 -0.04623325 14.87428869 -0.04623325 16.63849258 -0.05056 C22.74646482 -0.06553246 28.85441358 -0.07477257 34.96240234 -0.07910156 C41.2303912 -0.08456492 47.4981605 -0.10855344 53.76608086 -0.13707352 C58.62039791 -0.15583029 63.47466362 -0.16091252 68.32901382 -0.16243744 C70.6371594 -0.16543815 72.94530463 -0.17337778 75.25341415 -0.18662262 C88.39576932 -0.25661941 100.81264104 0.2410536 113.65283203 3.16113281 C114.50923782 3.35315781 115.36564362 3.5451828 116.2480011 3.74302673 C151.72964663 12.37991516 182.89076247 35.84515962 202.19384766 66.65087891 C221.05539551 97.66639691 227.90854685 133.30248179 221.65283203 169.16113281 C222.2093042 169.19553467 222.76577637 169.22993652 223.33911133 169.26538086 C263.30393191 171.90082808 298.61060474 186.32497808 327.65283203 214.16113281 C328.97154297 215.38509766 328.97154297 215.38509766 330.31689453 216.63378906 C351.83981258 237.21697407 365.37987857 264.56479996 372.65283203 293.16113281 C372.83217285 293.83917969 373.01151367 294.51722656 373.19628906 295.21582031 C378.94636538 317.96488096 377.8564117 346.65483061 371.65283203 369.16113281 C371.25813721 370.59706787 371.25813721 370.59706787 370.85546875 372.06201172 C364.02620439 396.00501836 352.77546797 417.69213049 335.72705078 435.93066406 C333.82803116 437.97273601 332.05445548 440.07564864 330.27783203 442.22363281 C325.09163962 448.18714681 318.80361125 453.73323573 311.65283203 457.16113281 C311.77762939 457.80872559 311.90242676 458.45631836 312.03100586 459.12353516 C313.38282832 466.31919346 314.44319147 473.52062012 315.34033203 480.78613281 C315.48277344 481.85347656 315.62521484 482.92082031 315.77197266 484.02050781 C317.66954087 499.38986632 317.66954087 499.38986632 313.46533203 506.03613281 C310.23444749 509.96978037 307.25327076 511.86786989 302.08517456 512.45069885 C293.87224204 512.74920025 288.56904822 510.8453151 281.47314453 506.87597656 C279.38867499 505.77735448 277.30403428 504.67905713 275.21923828 503.58105469 C271.99315029 501.84387377 268.77321917 500.09611305 265.55761719 498.33959961 C262.41850378 496.63631064 259.26009834 494.97387878 256.09814453 493.31347656 C255.15810577 492.78334457 254.21806702 492.25321259 253.24954224 491.70701599 C246.72434324 488.30295978 242.14816959 487.89849552 234.89736938 488.74180603 C229.69111991 489.32963959 224.48910113 489.31465981 219.25488281 489.33813477 C217.67375261 489.3483069 217.67375261 489.3483069 216.06068039 489.35868454 C212.65650192 489.37759649 209.2523603 489.3894092 205.84814453 489.39941406 C204.66632473 489.40348959 203.48450493 489.40756512 202.26687241 489.41176414 C196.00815769 489.43251668 189.74946417 489.4468634 183.49072266 489.45629883 C177.09913123 489.46732736 170.70789129 489.50171829 164.31642342 489.54147053 C159.33659311 489.5678831 154.35684346 489.57601238 149.37694931 489.57958031 C147.02433784 489.58438454 144.67172841 489.59581658 142.31918716 489.6146183 C120.84737144 489.77553518 99.89318788 487.75062525 79.65283203 480.16113281 C78.96141113 479.90460938 78.26999023 479.64808594 77.55761719 479.38378906 C56.58195991 471.47950712 38.72385218 459.6847749 22.65283203 444.16113281 C21.72728516 443.29875 20.80173828 442.43636719 19.84814453 441.54785156 C-0.15413734 422.42385686 -13.65920926 396.98277312 -20.72216797 370.41113281 C-21.08036621 369.06510986 -21.08036621 369.06510986 -21.44580078 367.69189453 C-24.68415789 354.72206342 -25.72579983 341.74805912 -25.65966797 328.41113281 C-25.6591745 327.71957092 -25.65868103 327.02800903 -25.65817261 326.31549072 C-25.63362373 315.02853673 -24.65164822 304.21786191 -22.34716797 293.16113281 C-22.0081445 291.16208949 -21.67387349 289.16222617 -21.34716797 287.16113281 C-22.48259033 287.7314624 -23.6180127 288.30179199 -24.7878418 288.8894043 C-28.99678824 291.00292098 -33.20705361 293.11379842 -37.41772461 295.22387695 C-39.24067753 296.13786929 -41.06327096 297.052579 -42.88549805 297.96801758 C-45.50329129 299.28297226 -48.12236236 300.59534996 -50.74169922 301.90722656 C-51.55741898 302.31766708 -52.37313873 302.7281076 -53.21357727 303.15098572 C-54.35442024 303.72146385 -54.35442024 303.72146385 -55.51831055 304.3034668 C-56.18671463 304.63877914 -56.85511871 304.97409149 -57.54377747 305.31956482 C-62.70392158 307.72759132 -67.75722699 307.7137201 -73.34716797 307.16113281 C-77.99106255 305.13470609 -80.68850867 302.30930577 -82.72607422 297.73535156 C-84.11996098 291.95817312 -83.07007429 285.98965076 -82.34716797 280.16113281 C-82.26096191 279.4519873 -82.17475586 278.7428418 -82.0859375 278.01220703 C-81.66422686 274.57739319 -81.22249847 271.14801741 -80.74951172 267.71972656 C-80.61673828 266.54539062 -80.48396484 265.37105469 -80.34716797 264.16113281 C-80.18603516 263.14535156 -80.02490234 262.12957031 -79.85888672 261.08300781 C-80.62511062 256.49792396 -83.68069984 254.73518496 -87.22216797 251.97363281 C-88.6141682 250.8247917 -90.00217902 249.67110031 -91.38623047 248.51269531 C-92.06717773 247.94454102 -92.748125 247.37638672 -93.44970703 246.79101562 C-117.98931246 225.71196187 -132.41406431 191.72506391 -136.34716797 160.16113281 C-136.58826619 154.7057375 -136.59286883 149.24632746 -136.59716797 143.78613281 C-136.59784271 143.02069153 -136.59851746 142.25525024 -136.59921265 141.46661377 C-136.58369816 130.41304845 -136.2544463 119.89120826 -133.34716797 109.16113281 C-133.17556152 108.51160645 -133.00395508 107.86208008 -132.82714844 107.19287109 C-122.56234634 69.0966038 -98.5183041 37.76790823 -64.44482422 17.84082031 C-49.80399996 9.58457241 -33.93471989 3.9292737 -17.34716797 1.16113281 C-16.34281708 0.98898254 -15.33846619 0.81683228 -14.30368042 0.63946533 C-9.51259203 0.06023466 -4.8210041 0.00568089 0 0 Z " fill="#B72965" transform="translate(136.34716796875,-0.1611328125)"/>
<path d="M0 0 C1.52602089 -0.00744736 1.52602089 -0.00744736 3.08287048 -0.01504517 C6.43692717 -0.02960529 9.79093647 -0.03646065 13.14501953 -0.04199219 C14.87428869 -0.04623325 14.87428869 -0.04623325 16.63849258 -0.05056 C22.74646482 -0.06553246 28.85441358 -0.07477257 34.96240234 -0.07910156 C41.2303912 -0.08456492 47.4981605 -0.10855344 53.76608086 -0.13707352 C58.62039791 -0.15583029 63.47466362 -0.16091252 68.32901382 -0.16243744 C70.6371594 -0.16543815 72.94530463 -0.17337778 75.25341415 -0.18662262 C88.39576932 -0.25661941 100.81264104 0.2410536 113.65283203 3.16113281 C114.50923782 3.35315781 115.36564362 3.5451828 116.2480011 3.74302673 C151.72964663 12.37991516 182.89076247 35.84515962 202.19384766 66.65087891 C220.67855102 97.04672204 228.89321369 133.91051556 221.65283203 169.16113281 C219.7090497 171.10491514 216.76083318 170.29229965 214.17282104 170.30458069 C213.2385025 170.30405197 212.30418396 170.30352325 211.34155273 170.30297852 C210.36237381 170.30645294 209.38319489 170.30992737 208.37434387 170.31350708 C206.23595567 170.3208845 204.0975597 170.32621923 201.95916176 170.32979774 C198.55467703 170.33696445 195.15033636 170.35264085 191.74589539 170.37113953 C182.06100666 170.42354058 172.37618894 170.4714035 162.69116211 170.48706055 C156.76998481 170.49726048 150.84915878 170.52690228 144.92812157 170.56838036 C142.68834302 170.58054662 140.44851445 170.58583848 138.20870399 170.58358192 C119.694079 170.56954402 101.34970074 172.13626913 83.77783203 178.41113281 C82.92108887 178.70777832 82.0643457 179.00442383 81.18164062 179.31005859 C72.97021798 182.24391077 65.25612984 185.90963682 57.65283203 190.16113281 C56.68240967 190.69891357 56.68240967 190.69891357 55.69238281 191.24755859 C46.98069703 196.12618887 39.16090014 201.53569256 31.65283203 208.16113281 C30.77755859 208.92683594 29.90228516 209.69253906 29.00048828 210.48144531 C21.40853295 217.21716508 14.41591377 224.06318884 8.27783203 232.16113281 C7.71692871 232.90097412 7.15602539 233.64081543 6.578125 234.40307617 C-1.26867019 244.91149531 -7.46796161 255.78297863 -12.64404297 267.82128906 C-12.92715332 268.470896 -13.21026367 269.12050293 -13.50195312 269.78979492 C-14.45379499 272.26513181 -14.45379499 272.26513181 -14.95410156 275.39379883 C-16.44058887 281.75487366 -17.95169151 285.58079088 -23.44873047 289.14428711 C-28.63050449 292.0946769 -34.03634381 294.53498726 -39.47216797 296.97363281 C-41.35310327 297.86061876 -43.23203689 298.75186259 -45.10888672 299.64746094 C-63.10804597 308.17330963 -63.10804597 308.17330963 -73.34716797 307.16113281 C-77.99106255 305.13470609 -80.68850867 302.30930577 -82.72607422 297.73535156 C-84.11996098 291.95817312 -83.07007429 285.98965076 -82.34716797 280.16113281 C-82.26096191 279.4519873 -82.17475586 278.7428418 -82.0859375 278.01220703 C-81.66422686 274.57739319 -81.22249847 271.14801741 -80.74951172 267.71972656 C-80.61673828 266.54539062 -80.48396484 265.37105469 -80.34716797 264.16113281 C-80.18603516 263.14535156 -80.02490234 262.12957031 -79.85888672 261.08300781 C-80.62511062 256.49792396 -83.68069984 254.73518496 -87.22216797 251.97363281 C-88.6141682 250.8247917 -90.00217902 249.67110031 -91.38623047 248.51269531 C-92.06717773 247.94454102 -92.748125 247.37638672 -93.44970703 246.79101562 C-117.98931246 225.71196187 -132.41406431 191.72506391 -136.34716797 160.16113281 C-136.58826619 154.7057375 -136.59286883 149.24632746 -136.59716797 143.78613281 C-136.59784271 143.02069153 -136.59851746 142.25525024 -136.59921265 141.46661377 C-136.58369816 130.41304845 -136.2544463 119.89120826 -133.34716797 109.16113281 C-133.17556152 108.51160645 -133.00395508 107.86208008 -132.82714844 107.19287109 C-122.56234634 69.0966038 -98.5183041 37.76790823 -64.44482422 17.84082031 C-49.80399996 9.58457241 -33.93471989 3.9292737 -17.34716797 1.16113281 C-16.34281708 0.98898254 -15.33846619 0.81683228 -14.30368042 0.63946533 C-9.51259203 0.06023466 -4.8210041 0.00568089 0 0 Z " fill="#65AFF3" transform="translate(136.34716796875,-0.1611328125)"/>
<path d="M0 0 C2.30025738 0.00748574 4.60052125 0.01316759 6.90078735 0.01715088 C12.87492338 0.03222382 18.84865327 0.07134136 24.82263184 0.1159668 C30.95070913 0.15732154 37.07885382 0.17524664 43.20703125 0.1953125 C55.17205076 0.23785837 67.13677251 0.30587941 79.1015625 0.390625 C78.8005802 2.29412798 78.49499317 4.19690318 78.1875 6.09936523 C78.01782715 7.15905014 77.8481543 8.21873505 77.67333984 9.31053162 C76.88894359 13.5359766 75.62786721 17.44491994 74.1015625 21.453125 C73.8010498 22.25113525 73.50053711 23.04914551 73.19091797 23.87133789 C65.96148785 42.43147453 55.78231062 57.93976854 42.1015625 72.390625 C41.28171875 73.27492188 40.461875 74.15921875 39.6171875 75.0703125 C13.87999689 101.94968612 -21.93661333 115.91990548 -58.84619141 116.89111328 C-70.03870387 117.1097912 -81.23286354 116.99355213 -92.42572021 116.86090088 C-96.65846972 116.81700134 -100.89113856 116.79967539 -105.12407207 116.78362942 C-123.74637753 116.71194873 -142.30654657 116.52573483 -160.8984375 115.390625 C-160.50023678 114.11302908 -160.1017615 112.83551873 -159.70317078 111.55804443 C-159.48129939 110.84662167 -159.25942801 110.1351989 -159.03083324 109.40221786 C-151.48976672 85.41477685 -137.91837856 65.71745439 -120.8984375 47.390625 C-120.3209375 46.74738281 -119.7434375 46.10414063 -119.1484375 45.44140625 C-108.55891415 34.16640036 -95.32498999 25.41058788 -81.67089844 18.31787109 C-80.08903132 17.49033235 -78.52727801 16.6246039 -76.96875 15.75390625 C-70.87692971 12.46639417 -64.54778809 10.03470097 -58.0234375 7.765625 C-57.25298096 7.48831543 -56.48252441 7.21100586 -55.6887207 6.92529297 C-37.49254031 0.85690188 -19.01457777 -0.18541064 0 0 Z " fill="#8159BB" transform="translate(277.8984375,169.609375)"/>
<path d="M0 0 C6.2523756 4.93028737 11.09117222 9.89284204 13.4609375 17.6484375 C14.52263534 26.99137845 13.72743372 33.72353101 8.265625 41.5625 C3.20229197 47.85045311 -1.91535251 51.9043536 -10.078125 52.83984375 C-17.45544897 53.18283445 -24.11074572 52.92922597 -30.2265625 48.3984375 C-31.804375 47.3465625 -31.804375 47.3465625 -33.4140625 46.2734375 C-38.40666046 41.90832453 -41.91932303 34.08027445 -42.46484375 27.54296875 C-42.69078977 17.39918144 -40.63303753 11.43555412 -33.87109375 3.9375 C-25.59757534 -3.80541271 -9.83230328 -6.05395093 0 0 Z " fill="#E0EEFE" transform="translate(116.2265625,103.6015625)"/>
<path d="M0 0 C6.86731699 5.77875989 11.9860468 11.76278368 13.3046875 20.79296875 C13.78595692 29.0037167 10.89627387 36.77669115 5.74609375 43.1171875 C1.01353674 48.09453195 -5.18162426 51.38342422 -12.078125 51.91796875 C-19.40283256 52.0684222 -24.94664355 52.00630372 -31.00390625 47.6796875 C-32.05578125 46.9371875 -33.10765625 46.1946875 -34.19140625 45.4296875 C-40.87176979 38.89777648 -43.08579103 32.7478643 -43.37890625 23.4921875 C-43.29199172 15.80025148 -41.27949627 10.37432954 -36.171875 4.61328125 C-26.72735962 -4.30964354 -11.37688412 -7.61326461 0 0 Z " fill="#E0EEFE" transform="translate(195.00390625,104.3203125)"/>
<path d="M0 0 C5.99680064 4.49487961 10.8052575 10.10297736 12.15234375 17.61328125 C12.93311835 25.52630024 13.31166602 32.86982288 8.7734375 39.68359375 C4.24735682 45.07126569 -1.55677876 50.79735791 -8.79174805 51.91308594 C-10.94522572 52.05164479 -13.06499493 52.08107342 -15.22265625 52.05078125 C-16.35646729 52.03833374 -16.35646729 52.03833374 -17.51318359 52.02563477 C-23.09439709 51.85593979 -27.39758648 51.20101693 -31.84765625 47.61328125 C-32.46898437 47.12730469 -33.0903125 46.64132812 -33.73046875 46.140625 C-39.62624373 40.92323417 -42.31688166 34.97464605 -43.26171875 27.2109375 C-43.635518 18.15122418 -42.13980597 11.35440061 -35.98046875 4.55078125 C-26.06769139 -4.7062871 -12.10219458 -7.14855088 0 0 Z " fill="#E1EDFC" transform="translate(404.84765625,313.38671875)"/>
<path d="M0 0 C6.93110912 5.01529198 10.98645161 11.37634509 13.21875 19.60546875 C14.19844052 27.32053163 11.92318982 34.3730563 7.74609375 40.91015625 C2.5557091 47.41347508 -3.35804392 51.01720479 -11.62890625 52.1171875 C-20.28766494 52.65868101 -27.05340841 51.42344986 -33.78125 45.60546875 C-39.15264908 40.58910884 -42.42958542 35.49114529 -43.09765625 28.109375 C-43.32623088 20.66963941 -43.23385767 14.7278043 -38.78125 8.60546875 C-38.059375 7.55359375 -37.3375 6.50171875 -36.59375 5.41796875 C-26.91021594 -4.26556531 -12.08773726 -7.00539319 0 0 Z " fill="#E1EDFC" transform="translate(326.78125,313.39453125)"/>
<path d="M0 0 C6.18253064 4.58169681 10.67141181 10.52152437 12.875 17.93359375 C13.91734872 26.89779274 12.96815124 33.34315488 7.609375 40.82421875 C3.21584859 46.16769681 -1.19514745 49.41530957 -7.8125 51.62109375 C-17.56888088 52.26573391 -25.44337507 52.06213681 -33.4375 46.18359375 C-39.73589091 40.30509556 -43.13656648 32.54687679 -43.5 23.99609375 C-43.03212807 15.10652711 -39.31199798 8.04810155 -32.73828125 2.09375 C-23.2026494 -5.19820377 -10.45796343 -6.07181101 0 0 Z " fill="#E1EDFC" transform="translate(248.8125,313.37890625)"/>
<path d="M0 0 C2.73427871 2.07700017 4.88723712 4.29880184 7 7 C7.43441406 7.53882812 7.86882812 8.07765625 8.31640625 8.6328125 C12.55665094 15.22218229 12.20376625 24.47599866 11 32 C8.33874271 39.4947776 3.02997637 45.01380635 -3.73046875 49.02734375 C-10.50774814 52.16309989 -19.37306812 52.36172362 -26.46875 50.2734375 C-28.46665418 49.32827514 -30.1968368 48.27406602 -32 47 C-33.03125 46.34 -34.0625 45.68 -35.125 45 C-40.43015761 40.2049537 -43.46759158 33.42478322 -44.55078125 26.45703125 C-44.89273814 17.49776072 -43.16630511 10.69042452 -37.16796875 3.9375 C-26.95055254 -5.73579346 -12.23223468 -7.30057668 0 0 Z " fill="#E0EEFE" transform="translate(274,105)"/>
</svg>
